<svg width="55" height="55" viewBox="0 0 55 55" fill="none" xmlns="http://www.w3.org/2000/svg">
<path d="M45.9479 25.2083H9.05208C7.84971 25.2083 6.875 26.1831 6.875 27.3854V27.6146C6.875 28.817 7.84971 29.7917 9.05208 29.7917H45.9479C47.1503 29.7917 48.125 28.817 48.125 27.6146V27.3854C48.125 26.1831 47.1503 25.2083 45.9479 25.2083Z" fill="#F0303D"/>
<path d="M45.9479 36.6667H9.05208C7.84971 36.6667 6.875 37.6414 6.875 38.8438V39.0729C6.875 40.2753 7.84971 41.25 9.05208 41.25H45.9479C47.1503 41.25 48.125 40.2753 48.125 39.0729V38.8438C48.125 37.6414 47.1503 36.6667 45.9479 36.6667Z" fill="#F0303D"/>
<path d="M45.9479 13.75H9.05208C7.84971 13.75 6.875 14.7247 6.875 15.9271V16.1563C6.875 17.3586 7.84971 18.3333 9.05208 18.3333H45.9479C47.1503 18.3333 48.125 17.3586 48.125 16.1563V15.9271C48.125 14.7247 47.1503 13.75 45.9479 13.75Z" fill="#F0303D"/>
</svg>
