<svg width="40" height="40" viewBox="0 0 40 40" fill="none" xmlns="http://www.w3.org/2000/svg">
<path d="M12.2852 27.7637H15.1611C15.3906 27.7637 15.6104 27.6611 15.7617 27.4854L20 22.4316L24.2383 27.4854C24.3848 27.6611 24.6045 27.7637 24.8389 27.7637H27.7148C28.0469 27.7637 28.2275 27.3779 28.0127 27.124L22.041 20L28.0176 12.876C28.2324 12.6221 28.0518 12.2363 27.7197 12.2363H24.8438C24.6143 12.2363 24.3945 12.3389 24.2432 12.5146L20 17.5684L15.7617 12.5146C15.6152 12.3389 15.3955 12.2363 15.1611 12.2363H12.2852C11.9531 12.2363 11.7725 12.6221 11.9873 12.876L17.959 20L11.9873 27.124C11.9392 27.1806 11.9083 27.2498 11.8983 27.3235C11.8884 27.3971 11.8998 27.472 11.9311 27.5394C11.9625 27.6067 12.0125 27.6636 12.0753 27.7034C12.138 27.7432 12.2109 27.7641 12.2852 27.7637Z" fill="white"/>
<path d="M37.9688 0.46875H2.03125C1.16699 0.46875 0.46875 1.16699 0.46875 2.03125V37.9688C0.46875 38.833 1.16699 39.5312 2.03125 39.5312H37.9688C38.833 39.5312 39.5312 38.833 39.5312 37.9688V2.03125C39.5312 1.16699 38.833 0.46875 37.9688 0.46875ZM36.0156 36.0156H3.98438V3.98438H36.0156V36.0156Z" fill="white"/>
</svg>
